<svg id="Layer_1" data-name="Layer 1" xmlns="http://www.w3.org/2000/svg" xmlns:xlink="http://www.w3.org/1999/xlink" viewBox="0 0 58.68 59"><defs><style>.cls-1,.cls-2{fill:none;}.cls-2{clip-rule:evenodd;}.cls-3{clip-path:url(#clip-path);}.cls-4{isolation:isolate;}.cls-5{clip-path:url(#clip-path-2);}.cls-6{clip-path:url(#clip-path-3);}.cls-7{clip-path:url(#clip-path-4);}.cls-8{fill:#fff;}</style><clipPath id="clip-path" transform="translate(-2.99 -2.54)"><rect class="cls-1" x="7.99" y="7.54" width="48.68" height="49"/></clipPath><clipPath id="clip-path-2" transform="translate(-2.99 -2.54)"><rect class="cls-1" x="7.78" y="7.54" width="49" height="50"/></clipPath><clipPath id="clip-path-3" transform="translate(-2.99 -2.54)"><path class="cls-2" d="M56.67,32.19A24.34,24.34,0,1,0,8,32.2,24.55,24.55,0,0,0,28.52,56.54V39.31H22.34V32.19h6.18V26.76c0-6.18,3.63-9.59,9.19-9.59a35.6,35.6,0,0,1,5.45.48v6.07H40.1a3.52,3.52,0,0,0-4,3.06,3.47,3.47,0,0,0,0,.79v4.62h6.75L41.8,39.31H36.13V56.54A24.58,24.58,0,0,0,56.67,32.19"/></clipPath><clipPath id="clip-path-4" transform="translate(-2.99 -2.54)"><rect class="cls-1" x="7.78" y="7.54" width="49" height="49"/></clipPath></defs><g class="cls-3"><g class="cls-4"><g class="cls-5"><g class="cls-6"><g class="cls-7"><rect class="cls-8" width="58.68" height="59"/></g></g></g></g></g></svg>