<svg id="Layer_1" data-name="Layer 1" xmlns="http://www.w3.org/2000/svg" xmlns:xlink="http://www.w3.org/1999/xlink" viewBox="0 0 58.71 58.7"><defs><style>.cls-1,.cls-2{fill:none;}.cls-2{clip-rule:evenodd;}.cls-3{clip-path:url(#clip-path);}.cls-4{isolation:isolate;}.cls-5{clip-path:url(#clip-path-2);}.cls-6{clip-path:url(#clip-path-3);}.cls-7{clip-path:url(#clip-path-4);}.cls-8{fill:#fff;}.cls-9{clip-path:url(#clip-path-5);}.cls-10{clip-path:url(#clip-path-6);}</style><clipPath id="clip-path" transform="translate(-2.64 -2.65)"><rect class="cls-1" x="7.65" y="7.65" width="48.71" height="48.7"/></clipPath><clipPath id="clip-path-2" transform="translate(-2.64 -2.65)"><rect class="cls-1" x="6.65" y="3.35" width="54" height="54"/></clipPath><clipPath id="clip-path-3" transform="translate(-2.64 -2.65)"><path class="cls-2" d="M32,56.35a24.35,24.35,0,1,1,9.48-1.92A24.35,24.35,0,0,1,32,56.35M32,19h-.56c-3,0-3.45,0-4.79.08a9.67,9.67,0,0,0-3.15.6,6.67,6.67,0,0,0-3.8,3.8,9.41,9.41,0,0,0-.6,3.15C19,28.07,19,28.53,19,32s0,3.94.08,5.36a9.46,9.46,0,0,0,.6,3.15,6.67,6.67,0,0,0,3.8,3.8,9.67,9.67,0,0,0,3.15.6C28,45,28.51,45,32,45s4,0,5.35-.08a9.73,9.73,0,0,0,3.16-.6,6.7,6.7,0,0,0,3.8-3.8,9.72,9.72,0,0,0,.6-3.15C45,35.94,45,35.47,45,32s0-3.93-.08-5.35a9.67,9.67,0,0,0-.6-3.15,6.7,6.7,0,0,0-3.8-3.8,9.73,9.73,0,0,0-3.16-.6C36,19,35.49,19,32,19"/></clipPath><clipPath id="clip-path-4" transform="translate(-2.64 -2.65)"><rect class="cls-1" x="7.65" y="7.35" width="49" height="49"/></clipPath><clipPath id="clip-path-5" transform="translate(-2.64 -2.65)"><path class="cls-2" d="M32,42.44c-3.39,0-3.79,0-5.15-.07a7.09,7.09,0,0,1-2.36-.44A4.07,4.07,0,0,1,23,41a3.93,3.93,0,0,1-.95-1.46,7.11,7.11,0,0,1-.44-2.37c-.06-1.33-.07-1.73-.07-5.14s0-3.81.07-5.15a7,7,0,0,1,.44-2.36A3.89,3.89,0,0,1,23,23a4,4,0,0,1,1.47-.95,7.09,7.09,0,0,1,2.36-.44c1.19-.05,1.64-.07,4-.07H32c3.43,0,3.83,0,5.15.07a7,7,0,0,1,2.36.44A3.89,3.89,0,0,1,41,23a4,4,0,0,1,1,1.47,7.09,7.09,0,0,1,.44,2.36c.06,1.34.07,1.74.07,5.15s0,3.81-.07,5.14a7.11,7.11,0,0,1-.44,2.37,4.2,4.2,0,0,1-2.42,2.41,6.86,6.86,0,0,1-2.37.44C35.8,42.43,35.39,42.44,32,42.44Zm0-17A6.54,6.54,0,1,0,38.54,32h0A6.56,6.56,0,0,0,32,25.46Zm6.8-1.78h0a1.53,1.53,0,1,0,1.53,1.53,1.52,1.52,0,0,0-1.53-1.53h0Z"/></clipPath><clipPath id="clip-path-6" transform="translate(-2.64 -2.65)"><path class="cls-2" d="M32,27.62A4.38,4.38,0,1,1,27.62,32,4.38,4.38,0,0,1,32,27.62"/></clipPath></defs><g class="cls-3"><g class="cls-4"><g class="cls-5"><g class="cls-6"><g class="cls-7"><rect class="cls-8" width="58.71" height="58.7"/></g></g></g></g></g><g class="cls-9"><rect class="cls-8" x="13.92" y="13.91" width="30.88" height="30.88"/></g><g class="cls-10"><rect class="cls-8" x="19.98" y="19.97" width="18.75" height="18.75"/></g></svg>