<svg id="Layer_1" data-name="Layer 1" xmlns="http://www.w3.org/2000/svg" xmlns:xlink="http://www.w3.org/1999/xlink" viewBox="0 0 58.71 58.7"><defs><style>.cls-1,.cls-2{fill:none;}.cls-2{clip-rule:evenodd;}.cls-3{clip-path:url(#clip-path);}.cls-4{isolation:isolate;}.cls-5{clip-path:url(#clip-path-2);}.cls-6{clip-path:url(#clip-path-3);}.cls-7{clip-path:url(#clip-path-4);}.cls-8{fill:#fff;}.cls-9{clip-path:url(#clip-path-5);}</style><clipPath id="clip-path" transform="translate(-2.97 -2.69)"><rect class="cls-1" x="7.97" y="7.69" width="48.71" height="48.7"/></clipPath><clipPath id="clip-path-2" transform="translate(-2.97 -2.69)"><rect class="cls-1" x="6.97" y="3.39" width="54" height="54"/></clipPath><clipPath id="clip-path-3" transform="translate(-2.97 -2.69)"><path class="cls-2" d="M32.33,56.39a24.35,24.35,0,1,1,9.47-1.92,24.35,24.35,0,0,1-9.47,1.92m0-33.27c-.08,0-8.15,0-10.15.56A3.29,3.29,0,0,0,19.89,26a35.46,35.46,0,0,0-.55,6.42,35.46,35.46,0,0,0,.55,6.42,3.26,3.26,0,0,0,2.29,2.35c2,.55,10.07.56,10.15.56s8.14,0,10.14-.56a3.27,3.27,0,0,0,2.3-2.35,36.37,36.37,0,0,0,.54-6.42A36.37,36.37,0,0,0,44.77,26a3.31,3.31,0,0,0-2.3-2.35c-2-.55-10.06-.56-10.14-.56"/></clipPath><clipPath id="clip-path-4" transform="translate(-2.97 -2.69)"><rect class="cls-1" x="7.97" y="7.39" width="49" height="49"/></clipPath><clipPath id="clip-path-5" transform="translate(-2.97 -2.69)"><polygon class="cls-2" points="30.14 37.25 30.14 29.04 36.71 33.14 30.14 37.25"/></clipPath></defs><g class="cls-3"><g class="cls-4"><g class="cls-5"><g class="cls-6"><g class="cls-7"><rect class="cls-8" width="58.71" height="58.7"/></g></g></g></g></g><g class="cls-9"><rect class="cls-8" x="22.17" y="21.35" width="16.56" height="18.21"/></g></svg>